
<svg width="15px" height="20px" viewBox="0 0 15 20" version="1.1" xmlns="http://www.w3.org/2000/svg" xmlns:xlink="http://www.w3.org/1999/xlink">
    <!-- Generator: Sketch 48.2 (47327) - http://www.bohemiancoding.com/sketch -->
    <desc>Created with Sketch.</desc>
    <defs>
        <polygon id="path-1" points="14.9190441 19.3014154 14.9190441 0.0162683824 2.20588235e-05 0.0162683824 2.20588235e-05 19.3014154 14.9190441 19.3014154"></polygon>
    </defs>
    <g id="Page-1" stroke="none" stroke-width="1" fill="none" fill-rule="evenodd">
        <g id="Main-menu" transform="translate(-2282.000000, -1086.000000)">
            <g id="Group-6" transform="translate(2248.000000, 554.000000)">
                <g id="Page-1" transform="translate(34.000000, 532.000000)">
                    <g id="Group-3" transform="translate(0.000000, 0.094081)">
                        <mask id="mask-2" fill="white">
                            <use xlink:href="#path-1"></use>
                        </mask>
                        <g id="Clip-2"></g>
                        <path d="M7.45954412,12.5054228 L14.8709779,19.3014154 C14.9018603,19.2206801 14.9190662,19.1331066 14.9190662,19.0414522 L14.9190662,0.748841912 C14.9190662,0.344283088 14.5910515,0.0162683824 14.1864926,0.0162683824 L0.732485294,0.0162683824 C0.327926471,0.0162683824 2.20588235e-05,0.344283088 2.20588235e-05,0.748841912 L2.20588235e-05,19.0414522 C2.20588235e-05,19.132886 0.0186617647,19.2195772 0.0494338235,19.3000919 L7.45954412,12.5054228 Z" id="Fill-1" fill="#FEFEFE" mask="url(#mask-2)"></path>
                    </g>
                    <path d="M12.97425,5.02701838 L3.58656618,5.02701838 C3.37336765,5.02701838 3.20053676,4.8541875 3.20053676,4.64098897 C3.20053676,4.42779044 3.37336765,4.25495956 3.58656618,4.25495956 L12.97425,4.25495956 C13.1874485,4.25495956 13.3602794,4.42779044 13.3602794,4.64098897 C13.3602794,4.8541875 13.1874485,5.02701838 12.97425,5.02701838" id="Fill-4" fill="#4C4C4C"></path>
                    <path d="M2.57467279,4.64098897 C2.57467279,4.87580515 2.38430515,5.06617279 2.14948897,5.06617279 C1.91467279,5.06617279 1.72430515,4.87580515 1.72430515,4.64098897 C1.72430515,4.40617279 1.91467279,4.21580515 2.14948897,4.21580515 C2.38430515,4.21580515 2.57467279,4.40617279 2.57467279,4.64098897" id="Fill-6" fill="#4C4C4C"></path>
                </g>
            </g>
        </g>
    </g>
</svg>