
<svg width="20px" height="21px" viewBox="0 0 20 21" version="1.1" xmlns="http://www.w3.org/2000/svg" xmlns:xlink="http://www.w3.org/1999/xlink">
    <!-- Generator: Sketch 48.2 (47327) - http://www.bohemiancoding.com/sketch -->
    <desc>Created with Sketch.</desc>
    <defs>
        <polygon id="path-1" points="19.8907895 4.46336842 19.8907895 0.026 7.89473684e-05 0.026 7.89473684e-05 4.46336842 19.8907895 4.46336842"></polygon>
    </defs>
    <g id="Page-1" stroke="none" stroke-width="1" fill="none" fill-rule="evenodd">
        <g id="Main-menu" transform="translate(-2281.000000, -1036.000000)">
            <g id="Group-6" transform="translate(2248.000000, 554.000000)">
                <g id="Page-1" transform="translate(33.000000, 482.000000)">
                    <path d="M14.2924737,1.30202632 L14.3056316,1.30202632 L14.3056316,0.702552632 C14.3056316,0.308342105 14.6140526,0.000184210526 15.008,0.000184210526 C15.4022105,0.000184210526 15.7106316,0.308342105 15.7106316,0.702552632 L15.7106316,1.23518421 L15.6969474,1.23518421 L15.6969474,1.83860526 C15.6969474,1.83860526 15.7064211,2.41965789 14.9993158,2.41965789 L14.9903684,2.41965789 C14.2832632,2.41965789 14.2924737,1.83860526 14.2924737,1.83860526 L14.2924737,1.30202632 Z" id="Fill-1" fill="#FEFEFE"></path>
                    <path d="M4.30031579,1.30202632 L4.30031579,1.23518421 L4.30031579,0.702552632 C4.30031579,0.308342105 4.60873684,0.000184210526 5.00268421,0.000184210526 C5.39689474,0.000184210526 5.70505263,0.308342105 5.70505263,0.702552632 L5.70505263,1.23518421 L5.70478947,1.23518421 L5.70478947,1.83860526 C5.70478947,1.83860526 5.714,2.41965789 5.00689474,2.41965789 L4.99794737,2.41965789 C4.29084211,2.41965789 4.30031579,1.83860526 4.30031579,1.83860526 L4.30031579,1.30202632 Z" id="Fill-3" fill="#FEFEFE"></path>
                    <path d="M17.6948947,10.4208158 C17.3617368,10.7642368 16.9625263,11.2266053 16.4980526,11.8071316 C16.0333158,12.3881842 15.5814737,13.0797632 15.142,13.8826579 C14.7027895,14.6858158 14.3185789,15.6002895 13.9906842,16.6250263 C13.6622632,17.6505526 13.4680526,18.7792368 13.4072632,20.0110789 L12.377,20.0110789 C12.4377895,19.1123947 12.5612105,18.2639737 12.7483158,17.4658158 C12.9351579,16.6681842 13.2027895,15.8876579 13.5512105,15.1252895 C13.8996316,14.3626579 14.3341053,13.5973947 14.8543684,12.8297632 C15.3743684,12.0621316 16.0030526,11.2595 16.7404211,10.4208158 L10.877,10.4208158 L10.877,9.54213158 L17.6948947,9.54213158 L17.6948947,10.4208158 Z" id="Fill-5" fill="#FEFEFE"></path>
                    <g id="Group-9" transform="translate(0.000000, 1.276105)">
                        <mask id="mask-2" fill="white">
                            <use xlink:href="#path-1"></use>
                        </mask>
                        <g id="Clip-8"></g>
                        <path d="M19.8908684,4.46336842 L7.89473684e-05,4.46336842 L7.89473684e-05,0.728368421 C7.89473684e-05,0.334421053 0.308236842,0.026 0.702447368,0.026 L4.03613158,0.026 L4.03613158,0.609947368 C4.03613158,1.41705263 4.99797368,1.39731579 4.99797368,1.39731579 L5.00692105,1.39731579 C5.00692105,1.39731579 5.96876316,1.41705263 5.96876316,0.609947368 L5.96876316,0.026 L14.0285,0.026 L14.0285,0.609947368 C14.0285,1.41705263 14.9903421,1.39731579 14.9903421,1.39731579 L14.9992895,1.39731579 C14.9992895,1.39731579 15.9611316,1.41705263 15.9611316,0.609947368 L15.9611316,0.026 L19.1885,0.026 C19.5824474,0.026 19.8908684,0.334421053 19.8908684,0.728368421 L19.8908684,4.46336842 Z" id="Fill-7" fill="#FEFEFE" mask="url(#mask-2)"></path>
                    </g>
                    <path d="M8.57534211,16.2691316 C8.51481579,16.8096579 8.39086842,17.3146579 8.20402632,17.7841316 C8.01718421,18.2538684 7.74192105,18.6451842 7.3785,18.9583421 C7.01481579,19.2715 6.53007895,19.4280789 5.92402632,19.4280789 C5.31797368,19.4280789 4.83297368,19.2715 4.46955263,18.9583421 C4.10586842,18.6451842 3.83060526,18.2538684 3.64376316,17.7841316 C3.45665789,17.3146579 3.33323684,16.8096579 3.27271053,16.2691316 C3.21218421,15.7288684 3.18165789,15.2262368 3.18165789,14.7615 C3.18165789,14.3070263 3.21218421,13.8070263 3.27271053,13.2615 C3.33323684,12.7162368 3.45665789,12.2112368 3.64376316,11.7465 C3.83060526,11.2822895 4.10586842,10.8930789 4.46955263,10.5799211 C4.83297368,10.2667632 5.31797368,10.1104474 5.92402632,10.1104474 C6.53007895,10.1104474 7.01481579,10.2667632 7.3785,10.5799211 C7.74192105,10.8930789 8.01718421,11.2822895 8.20402632,11.7465 C8.39086842,12.2112368 8.51481579,12.7162368 8.57534211,13.2615 C8.63586842,13.8070263 8.66639474,14.3070263 8.66639474,14.7615 C8.66639474,15.2262368 8.63586842,15.7288684 8.57534211,16.2691316 M9.47692105,12.8754474 C9.38086842,12.2288684 9.19902632,11.6430789 8.93165789,11.1178158 C8.66376316,10.5928158 8.29007895,10.1609737 7.81034211,9.82228947 C7.33060526,9.48413158 6.70165789,9.31492105 5.92402632,9.31492105 C5.15639474,9.31492105 4.53007895,9.48413158 4.04534211,9.82228947 C3.56060526,10.1609737 3.18428947,10.5928158 2.91665789,11.1178158 C2.64876316,11.6430789 2.46692105,12.2288684 2.37113158,12.8754474 C2.27507895,13.5217632 2.22718421,14.1583421 2.22718421,14.7841316 C2.22718421,15.4004474 2.27507895,16.0320263 2.37113158,16.6780789 C2.46692105,17.3246579 2.64876316,17.9104474 2.91665789,18.4354474 C3.18428947,18.9609737 3.56060526,19.3901842 4.04534211,19.7233421 C4.53007895,20.0567632 5.15639474,20.2233421 5.92402632,20.2233421 C6.70165789,20.2233421 7.33060526,20.0567632 7.81034211,19.7233421 C8.29007895,19.3901842 8.66376316,18.9609737 8.93165789,18.4354474 C9.19902632,17.9104474 9.38086842,17.3246579 9.47692105,16.6780789 C9.57297368,16.0320263 9.62086842,15.3954474 9.62086842,14.7691316 C9.62086842,14.1530789 9.57297368,13.5217632 9.47692105,12.8754474" id="Fill-10" fill="#FEFEFE"></path>
                </g>
            </g>
        </g>
    </g>
</svg>