<?xml version="1.0" encoding="iso-8859-1"?>
<!-- Generator: Adobe Illustrator 19.1.0, SVG Export Plug-In . SVG Version: 6.00 Build 0)  -->
<svg xmlns="http://www.w3.org/2000/svg" xmlns:xlink="http://www.w3.org/1999/xlink" version="1.1" id="Capa_1" x="0px" y="0px" viewBox="0 0 513.32 513.32" style="enable-background:new 0 0 513.32 513.32;" xml:space="preserve" width="512px" height="512px">
<g>
	<g>
		<g>
			<polygon points="177.523,305.853 42.777,440.6 42.777,342.213 0,342.213 0,513.32 171.107,513.32 171.107,470.543      74.859,470.543 209.605,335.797    " fill="#999999"/>
			<polygon points="470.543,440.6 72.72,42.777 171.107,42.777 171.107,0 0,0 0,171.107 42.777,171.107 42.777,72.72 440.6,470.543      342.213,470.543 342.213,513.32 513.32,513.32 513.32,342.213 470.543,342.213    " fill="#999999"/>
			<polygon points="342.213,0 342.213,42.777 442.739,42.777 307.992,177.523 337.935,207.467 470.543,74.859 470.543,171.107      513.32,171.107 513.32,0    " fill="#999999"/>
		</g>
	</g>
</g>
<g>
</g>
<g>
</g>
<g>
</g>
<g>
</g>
<g>
</g>
<g>
</g>
<g>
</g>
<g>
</g>
<g>
</g>
<g>
</g>
<g>
</g>
<g>
</g>
<g>
</g>
<g>
</g>
<g>
</g>
</svg>
