<?xml version="1.0" encoding="utf-8"?>
<!-- Generator: Adobe Illustrator 22.0.1, SVG Export Plug-In . SVG Version: 6.00 Build 0)  -->
<svg width="30px" height="25px" version="1.1" id="Layer_1" xmlns="http://www.w3.org/2000/svg" xmlns:xlink="http://www.w3.org/1999/xlink" x="0px" y="0px"
	 viewBox="0 0 76 96.6" style="enable-background:new 0 0 76 96.6;" xml:space="preserve">
<style type="text/css">
	.st0{fill:#FFFFFF;}
	.st1{fill:none;}
	.st2{fill-rule:evenodd;clip-rule:evenodd;fill:#FFFFFF;}
</style>
<path class="st0" d="M63.3,11.6H12.7c-1.5,0-2.8,1.2-2.8,2.8v68.8c0,0.5,0.2,1,0.4,1.5l7.3-7.5c1.1-1.1,2.8-1.1,3.9-0.1l7.5,7.3
	l7-7.2c1.1-1.1,2.8-1.1,3.9-0.1l6.9,6.8l6.5-6.7c1.1-1.1,2.8-1.1,3.9-0.1l8.1,7.9c0.4-0.5,0.7-1.1,0.7-1.8V14.4
	C66.1,12.8,64.8,11.6,63.3,11.6z M21.6,57.1c-1.7,0-3.1-1.4-3.1-3.1c0-1.7,1.4-3.1,3.1-3.1c1.7,0,3.1,1.4,3.1,3.1
	C24.7,55.7,23.3,57.1,21.6,57.1z M21.6,47.3c-1.7,0-3.1-1.4-3.1-3.1c0-1.7,1.4-3.1,3.1-3.1c1.7,0,3.1,1.4,3.1,3.1
	C24.7,45.9,23.3,47.3,21.6,47.3z M21.6,37.5c-1.7,0-3.1-1.4-3.1-3.1c0-1.7,1.4-3.1,3.1-3.1c1.7,0,3.1,1.4,3.1,3.1
	C24.7,36.1,23.3,37.5,21.6,37.5z M55.2,56.2H42H29.3c-1.2,0-2.3-1-2.3-2.3c0-1.2,1-2.3,2.3-2.3H42h13.2c1.2,0,2.3,1,2.3,2.3
	C57.4,55.2,56.4,56.2,55.2,56.2z M55.2,46.4H42H29.3c-1.2,0-2.3-1-2.3-2.3c0-1.2,1-2.3,2.3-2.3H42h13.2c1.2,0,2.3,1,2.3,2.3
	C57.4,45.4,56.4,46.4,55.2,46.4z M55.2,36.6H42H29.3c-1.2,0-2.3-1-2.3-2.3c0-1.2,1-2.3,2.3-2.3H42h13.2c1.2,0,2.3,1,2.3,2.3
	C57.4,35.6,56.4,36.6,55.2,36.6z"/>
</svg>
