<?xml version="1.0" encoding="utf-8"?>
<!-- Generator: Adobe Illustrator 22.0.1, SVG Export Plug-In . SVG Version: 6.00 Build 0)  -->
<svg height="25px" version="1.1" id="Layer_1" xmlns="http://www.w3.org/2000/svg" xmlns:xlink="http://www.w3.org/1999/xlink" x="0px" y="0px"
	 viewBox="0 0 76 96.6" style="enable-background:new 0 0 76 96.6;" xml:space="preserve">
<style type="text/css">
	.st0{fill:#ABAAA7;}
	.st1{fill:none;}
	.st2{fill-rule:evenodd;clip-rule:evenodd;fill:#ABAAA7;}
</style>
<path class="st0" d="M62,12.6H12.2c-1.5,0-2.7,1.2-2.7,2.7V83c0,0.3,0.1,0.7,0.2,1l25.7-23.6c1-0.9,2.5-0.9,3.4,0L64.5,84
	c0.1-0.3,0.2-0.6,0.2-1V15.3C64.7,13.8,63.5,12.6,62,12.6z M20.7,37.9c-1.7,0-3.1-1.4-3.1-3.1c0-1.7,1.4-3.1,3.1-3.1
	c1.7,0,3.1,1.4,3.1,3.1C23.9,36.5,22.5,37.9,20.7,37.9z M54.3,37.1H41.1H28.5c-1.2,0-2.3-1-2.3-2.3c0-1.2,1-2.3,2.3-2.3h12.6h13.2
	c1.2,0,2.3,1,2.3,2.3C56.6,36,55.6,37.1,54.3,37.1z"/>
</svg>
