
<svg width="19px" height="20px" viewBox="0 0 19 20" version="1.1" xmlns="http://www.w3.org/2000/svg" xmlns:xlink="http://www.w3.org/1999/xlink">
    <!-- Generator: Sketch 48.2 (47327) - http://www.bohemiancoding.com/sketch -->
    <desc>Created with Sketch.</desc>
    <defs>
        <path d="M0.465714286,10.9962687 C-0.14,10.3985075 -0.14,9.42343284 0.465714286,8.82223881 L4.91338346,4.40746269 C5.2162406,4.10686567 5.70571429,4.10686567 6.00857143,4.40746269 C6.31142857,4.7080597 6.31142857,5.1938806 6.00857143,5.49447761 L2.11022556,9.36746269 C1.80736842,9.6680597 1.80736842,10.1538806 2.11022556,10.4544776 L6.00857143,14.3237313 C6.31142857,14.6243284 6.31142857,15.1101493 6.00857143,15.4107463 C5.70571429,15.7113433 5.2162406,15.7113433 4.91338346,15.4107463 L0.465714286,10.9962687 Z M8.98796992,19.8738806 C6.43578947,19.8738806 4.10676692,18.9135821 2.3443609,17.339403 C2.08330827,17.1062687 2.05533835,16.708806 2.27233083,16.4346269 C2.51323308,16.1302985 2.96210526,16.0928358 3.25233083,16.3513433 C4.77353383,17.7059701 6.78330827,18.530597 8.98796992,18.530597 C13.8699248,18.530597 17.801203,14.490597 17.5732331,9.59522388 C17.3709774,5.25373134 13.842406,1.72 9.47022556,1.48268657 C7.10586466,1.35432836 4.93684211,2.17656716 3.31172932,3.59746269 C3.02255639,3.85029851 2.57849624,3.80731343 2.34045113,3.50656716 L2.33834586,3.50402985 C2.11578947,3.22283582 2.15699248,2.81970149 2.4275188,2.58358209 C4.33007519,0.92358209 6.87443609,-0.028358209 9.63804511,0.147014925 C14.6568421,0.465373134 18.6846617,4.53298507 18.9245113,9.51865672 C19.1968421,15.1808955 14.6341353,19.8738806 8.98796992,19.8738806 Z" id="path-1"></path>
    </defs>
    <g id="Symbols" stroke="none" stroke-width="1" fill="#ABAAA7" fill-rule="evenodd">
        <g id="logout">
            <g id="Layer_1">
                <g>
                    <g id="Group">
                        <g id="SVGID_1_-link" fill="#ABAAA7">
                            <path d="M0.465714286,10.9962687 C-0.14,10.3985075 -0.14,9.42343284 0.465714286,8.82223881 L4.91338346,4.40746269 C5.2162406,4.10686567 5.70571429,4.10686567 6.00857143,4.40746269 C6.31142857,4.7080597 6.31142857,5.1938806 6.00857143,5.49447761 L2.11022556,9.36746269 C1.80736842,9.6680597 1.80736842,10.1538806 2.11022556,10.4544776 L6.00857143,14.3237313 C6.31142857,14.6243284 6.31142857,15.1101493 6.00857143,15.4107463 C5.70571429,15.7113433 5.2162406,15.7113433 4.91338346,15.4107463 L0.465714286,10.9962687 Z M8.98796992,19.8738806 C6.43578947,19.8738806 4.10676692,18.9135821 2.3443609,17.339403 C2.08330827,17.1062687 2.05533835,16.708806 2.27233083,16.4346269 C2.51323308,16.1302985 2.96210526,16.0928358 3.25233083,16.3513433 C4.77353383,17.7059701 6.78330827,18.530597 8.98796992,18.530597 C13.8699248,18.530597 17.801203,14.490597 17.5732331,9.59522388 C17.3709774,5.25373134 13.842406,1.72 9.47022556,1.48268657 C7.10586466,1.35432836 4.93684211,2.17656716 3.31172932,3.59746269 C3.02255639,3.85029851 2.57849624,3.80731343 2.34045113,3.50656716 L2.33834586,3.50402985 C2.11578947,3.22283582 2.15699248,2.81970149 2.4275188,2.58358209 C4.33007519,0.92358209 6.87443609,-0.028358209 9.63804511,0.147014925 C14.6568421,0.465373134 18.6846617,4.53298507 18.9245113,9.51865672 C19.1968421,15.1808955 14.6341353,19.8738806 8.98796992,19.8738806 Z" id="SVGID_1_"></path>
                        </g>
                        <g id="Clipped">
                            <mask id="mask-2" fill="#ABAAA7">
                                <use xlink:href="#path-1"></use>
                            </mask>
                            <g id="SVGID_1_"></g>
                            <rect id="Rectangle-path" fill="#ABAAA7" mask="url(#mask-2)" x="-1.17338346" y="-0.248358209" width="20.3508271" height="21.5920896"></rect>
                        </g>
                    </g>
                </g>
            </g>
        </g>
    </g>
</svg>
