
<svg width="10px" height="20px" viewBox="0 0 10 20" version="1.1" xmlns="http://www.w3.org/2000/svg" xmlns:xlink="http://www.w3.org/1999/xlink">
    <!-- Generator: Sketch 48.2 (47327) - http://www.bohemiancoding.com/sketch -->
    <desc>Created with Sketch.</desc>
    <defs>
        <polygon id="path-1" points="0.000113636364 0.000113636364 9.8425 0.000113636364 9.8425 19.7398864 0.000113636364 19.7398864"></polygon>
    </defs>
    <g id="Page-1" stroke="none" stroke-width="1" fill="none" fill-rule="evenodd">
        <g id="Main-menu" transform="translate(-2283.000000, -881.000000)">
            <g id="Group-6" transform="translate(2248.000000, 554.000000)">
                <g id="Page-1" transform="translate(35.000000, 327.000000)">
                    <mask id="mask-2" fill="white">
                        <use xlink:href="#path-1"></use>
                    </mask>
                    <g id="Clip-2"></g>
                    <path d="M5.94852273,18.0433409 L5.94852273,19.7399318 L4.09784091,19.7399318 L4.09784091,18.0049318 C1.70761364,17.88925 0.000113636364,15.3897045 0.000113636364,15.3897045 L1.43920455,14.2265227 C1.95306818,15.2994773 3.97170455,16.0387955 4.92125,16.0387955 C5.87102273,16.0387955 7.79920455,15.4603864 7.95647727,13.5133409 C8.07920455,11.9926591 5.56193182,10.8599318 4.45397727,10.43675 C4.35261364,10.4015227 4.24579545,10.3624318 4.13420455,10.3197045 C4.01375,10.2776591 3.94375,10.2553864 3.94375,10.2553864 L3.94784091,10.2462955 C2.40829545,9.62334091 0.205568182,8.31379545 0.205568182,5.91811364 C0.205568182,2.23606818 4.09943182,1.69629545 4.09943182,1.69629545 L4.09943182,-6.81818182e-05 L5.95011364,-6.81818182e-05 L5.95011364,1.73493182 C8.34034091,1.85061364 9.49715909,3.50856818 9.49715909,3.50856818 L8.05784091,4.97993182 C7.54397727,3.90743182 6.14647727,3.50856818 5.19670455,3.50856818 C4.24715909,3.50856818 2.24897727,3.97106818 2.09170455,5.91811364 C1.96875,7.43902273 4.48602273,8.57152273 5.59397727,8.99470455 C5.69556818,9.02993182 5.80238636,9.06902273 5.91375,9.11175 C6.03397727,9.15379545 6.10443182,9.17584091 6.10443182,9.17584091 L6.10011364,9.18493182 C7.63965909,9.80834091 9.84261364,11.1174318 9.84261364,13.5133409 C9.84261364,17.1953864 5.94852273,18.0433409 5.94852273,18.0433409" id="Fill-1" fill="#FEFEFE" mask="url(#mask-2)"></path>
                </g>
            </g>
        </g>
    </g>
</svg>