
<svg width="20px" height="19px" viewBox="0 0 20 19" version="1.1" xmlns="http://www.w3.org/2000/svg" xmlns:xlink="http://www.w3.org/1999/xlink">
    <!-- Generator: Sketch 48.2 (47327) - http://www.bohemiancoding.com/sketch -->
    <desc>Created with Sketch.</desc>
    <defs>
        <path d="M3.2509589,0.193150685 C3.35342466,0.0969863014 3.49671233,0.0490410959 3.64,0.0490410959 C3.78328767,0.0490410959 3.92657534,0.0969863014 4.0290411,0.193150685 C4.25123288,0.394246575 4.25123288,0.715890411 4.0290411,0.916986301 L1.90438356,2.87534247 L8.77041096,2.87534247 C12.2843836,2.87534247 15.1405479,5.50164384 15.1405479,8.7339726 C15.1405479,10.2909589 14.4778082,11.7619178 13.2679452,12.8712329 C13.1693151,12.9654795 13.0241096,13.02 12.8786301,13.02 C12.7334247,13.02 12.5967123,12.969589 12.489863,12.8745205 C12.2673973,12.6742466 12.2673973,12.3476712 12.4854795,12.1512329 C13.4816438,11.2350685 14.0287671,10.020274 14.0287671,8.7339726 C14.0287671,6.06794521 11.6690411,3.89753425 8.77041096,3.89753425 L1.90438356,3.89753425 L4.0290411,5.85561644 C4.14,5.95369863 4.19589041,6.08356164 4.19589041,6.22136986 C4.19589041,6.35479452 4.13616438,6.48465753 4.0290411,6.57945205 C3.83671233,6.76794521 3.44767123,6.77150685 3.24219178,6.57150685 L0.17260274,3.74794521 C0.117260274,3.70082192 0.0745205479,3.64164384 0.0490410959,3.57917808 C-0.00684931507,3.45753425 -0.00684931507,3.31506849 0.0490410959,3.19342466 C0.0745205479,3.13068493 0.117260274,3.07205479 0.17260274,3.02438356 L3.2509589,0.193150685 Z M3.33506849,6.47068493 C3.41205479,6.54575342 3.53041096,6.58356164 3.64657534,6.58356164 C3.75643836,6.58356164 3.86410959,6.54958904 3.93342466,6.48164384 C4.01479452,6.4090411 4.05890411,6.31589041 4.05890411,6.22136986 C4.05890411,6.11890411 4.01726027,6.02794521 3.93835616,5.95835616 L1.55342466,3.76054795 L8.77041096,3.76054795 C11.7454795,3.76054795 14.1657534,5.99150685 14.1657534,8.7339726 C14.1657534,10.0608219 13.6019178,11.3106849 12.5780822,12.2520548 C12.5013699,12.3213699 12.4594521,12.4126027 12.4594521,12.509863 C12.4594521,12.6084932 12.5030137,12.7019178 12.5813699,12.7728767 C12.7427397,12.9161644 13.0276712,12.9117808 13.1728767,12.7723288 C14.3542466,11.6893151 15.0035616,10.2556164 15.0035616,8.7339726 C15.0035616,5.57890411 12.2073973,3.01232877 8.77041096,3.01232877 L1.55342466,3.01232877 L3.93643836,0.816438356 C4.01561644,0.744383562 4.05890411,0.652054795 4.05890411,0.555068493 C4.05890411,0.458082192 4.01561644,0.365753425 3.93726027,0.294794521 C3.78356164,0.150684932 3.49643836,0.150684932 3.34465753,0.293424658 L0.265479452,3.12520548 C0.223013699,3.16164384 0.193150685,3.20191781 0.175890411,3.24520548 C0.134794521,3.33561644 0.134794521,3.43726027 0.17369863,3.52246575 C0.193150685,3.57041096 0.223835616,3.61150685 0.261369863,3.64356164 L3.33506849,6.47068493 Z" id="path-1"></path>
        <path d="M1.52328767,0.33890411 C1.6260274,0.222465753 1.78054795,0.161917808 1.93479452,0.161917808 C2.05753425,0.161917808 2.18,0.2 2.27589041,0.278630137 C2.4969863,0.467945205 2.52547945,0.798356164 2.33726027,1.02 C1.56,1.91863014 1.13068493,3.05506849 1.13068493,4.22684932 C1.13068493,6.95945205 3.38849315,9.18383562 6.16191781,9.18383562 L13.3857534,9.18383562 L11.379726,7.20767123 C11.2438356,7.0739726 11.1720548,6.88027397 11.2109589,6.6939726 C11.3021918,6.25972603 11.8353425,6.17342466 12.1016438,6.43589041 L15.0468493,9.3369863 C15.2515068,9.5430137 15.2515068,9.87726027 15.0468493,10.0786301 L12.1016438,12.98 C12.0032877,13.0764384 11.8643836,13.1331507 11.7252055,13.1331507 C11.5860274,13.1331507 11.4471233,13.0764384 11.3490411,12.98 C11.140274,12.7739726 11.140274,12.4441096 11.3490411,12.2383562 L13.3857534,10.2317808 L6.16191781,10.2317808 C2.79945205,10.2317808 0.0671232877,7.54 0.0671232877,4.22684932 C0.0671232877,2.80493151 0.58630137,1.42684932 1.52328767,0.33890411 Z M0.34109589,4.22684932 C0.34109589,7.38684932 2.95232877,9.95753425 6.16191781,9.95753425 L14.0539726,9.95753425 L11.5410959,12.4334247 C11.4931507,12.4810959 11.4665753,12.5435616 11.4665753,12.6087671 C11.4665753,12.6745205 11.4931507,12.7372603 11.5413699,12.7849315 C11.6339726,12.8758904 11.8158904,12.8767123 11.909863,12.7843836 L14.8545205,9.88328767 C14.900274,9.83863014 14.9260274,9.7769863 14.9263014,9.71068493 C14.9265753,9.64246575 14.900274,9.57835616 14.8526027,9.53041096 L11.9093151,6.6309589 C11.8449315,6.56794521 11.7372603,6.54438356 11.64,6.5739726 C11.579726,6.59205479 11.5030137,6.63753425 11.4794521,6.75013699 C11.4610959,6.83753425 11.4967123,6.93808219 11.5720548,7.01260274 L14.0539726,9.45808219 L6.16191781,9.45808219 C3.23671233,9.45808219 0.856712329,7.11123288 0.856712329,4.22684932 C0.856712329,2.99287671 1.30876712,1.79041096 2.13013699,0.840821918 C2.21780822,0.737534247 2.20383562,0.577534247 2.09753425,0.48630137 C2.05561644,0.452054795 1.9969863,0.435342466 1.93726027,0.435342466 C1.85863014,0.435342466 1.77808219,0.464109589 1.7290411,0.52 C0.834794521,1.55863014 0.34109589,2.87589041 0.34109589,4.22684932 Z" id="path-3"></path>
    </defs>
    <g id="Page-1" stroke="none" stroke-width="1" fill="ABAAA7" fill-rule="evenodd">
        <g id="Main-menu" transform="translate(-2282.000000, -961.000000)">
            <g id="Group-6" transform="translate(2248.000000, 554.000000)">
                <g id="Page-1" transform="translate(34.000000, 407.000000)">
                    <g id="Group-5" transform="translate(4.383562, 0.109589)" fill="#FEFEFE">
                        <path d="M15.4144384,9.00791781 C15.4144384,10.5651781 14.7516986,12.035863 13.5418356,13.1451781 C13.4434795,13.2394247 13.298,13.2942192 13.1527945,13.2942192 C13.0073151,13.2942192 12.8706027,13.2435342 12.7637534,13.1484658 C12.5415616,12.9484658 12.5415616,12.6216164 12.7596438,12.4251781 C13.7555342,11.5090137 14.3026575,10.2942192 14.3026575,9.00791781 C14.3026575,6.34189041 11.9429315,4.17147945 9.04430137,4.17147945 L2.17827397,4.17147945 L4.30320548,6.12956164 C4.41416438,6.22791781 4.46978082,6.35750685 4.46978082,6.49531507 C4.46978082,6.62873973 4.41005479,6.75860274 4.30320548,6.85367123 C4.11087671,7.04189041 3.72156164,7.04572603 3.51635616,6.84517808 L0.446767123,4.02189041 C0.391424658,3.97476712 0.348410959,3.91558904 0.322931507,3.85339726 C0.267315068,3.73120548 0.267315068,3.58928767 0.322931507,3.46736986 C0.348410959,3.40463014 0.391424658,3.346 0.446767123,3.29832877 L3.52512329,0.46709589 C3.73032877,0.274767123 4.098,0.274767123 4.30320548,0.46709589 C4.52539726,0.668191781 4.52539726,0.989835616 4.30320548,1.19093151 L2.17827397,3.14928767 L9.04430137,3.14928767 C12.5585479,3.14928767 15.4144384,5.77558904 15.4144384,9.00791781" id="Fill-1"></path>
                        <path d="M1.82750685,4.03441096 L9.04421918,4.03441096 C12.0192877,4.03441096 14.4398356,6.26564384 14.4398356,9.00783562 C14.4398356,10.3349589 13.876,11.5845479 12.8521644,12.5259178 C12.7751781,12.5952329 12.7335342,12.6864658 12.7335342,12.784 C12.7335342,12.8826301 12.7768219,12.9760548 12.8554521,13.0467397 C13.0165479,13.1903014 13.3014795,13.1856438 13.4469589,13.0464658 C14.6283288,11.9631781 15.2773699,10.5297534 15.2773699,9.00783562 C15.2773699,5.8530411 12.4812055,3.28646575 9.04421918,3.28646575 L1.82750685,3.28646575 L4.21024658,1.09030137 C4.28969863,1.01824658 4.3329863,0.925917808 4.3329863,0.828931507 C4.3329863,0.731945205 4.28969863,0.639616438 4.21134247,0.568931507 C4.05764384,0.424547945 3.77052055,0.424547945 3.61873973,0.567287671 L0.539561644,3.39934247 C0.49709589,3.43550685 0.467232877,3.47605479 0.449972603,3.51906849 C0.40860274,3.60947945 0.40860274,3.71112329 0.447506849,3.79660274 C0.467232877,3.84427397 0.497643836,3.88536986 0.535452055,3.91742466 L3.60915068,6.74454795 C3.7590137,6.89084932 4.0650411,6.89523288 4.20750685,6.75578082 C4.28887671,6.68317808 4.3329863,6.58975342 4.3329863,6.49523288 C4.3329863,6.39276712 4.29134247,6.30180822 4.21243836,6.23221918 L1.82750685,4.03441096 Z M13.1527123,13.4311233 C12.9740822,13.4311233 12.8036712,13.3670137 12.6727123,13.2511233 C12.5351781,13.1270137 12.4595616,12.9612603 12.4595616,12.784 C12.4595616,12.6081096 12.5335342,12.4445479 12.6677808,12.3234521 C13.6335342,11.4352329 14.165863,10.2574247 14.165863,9.00783562 C14.165863,6.41660274 11.8683288,4.30838356 9.04421918,4.30838356 L2.52915068,4.30838356 L4.396,6.02865753 C4.53134247,6.14838356 4.6069589,6.31468493 4.6069589,6.49523288 C4.6069589,6.66783562 4.52942466,6.83605479 4.39408219,6.95605479 C4.15024658,7.19523288 3.67463014,7.19139726 3.42065753,6.94317808 L0.354082192,4.12263014 C0.286410959,4.06536986 0.230520548,3.98920548 0.196,3.90509589 C0.125863014,3.75139726 0.125863014,3.56920548 0.198465753,3.41057534 C0.22969863,3.33249315 0.285863014,3.25605479 0.357643836,3.19441096 L3.43216438,0.366191781 C3.68832877,0.126191781 4.13928767,0.125643836 4.39682192,0.367013699 C4.53161644,0.489205479 4.6069589,0.653589041 4.6069589,0.828931507 C4.6069589,1.00427397 4.53161644,1.16893151 4.39517808,1.29249315 L2.52915068,3.01249315 L9.04421918,3.01249315 C12.6324384,3.01249315 15.5513425,5.70208219 15.5513425,9.00783562 C15.5513425,10.6075616 14.8705205,12.1124932 13.6343562,13.2459178 C13.5146301,13.3609863 13.3338082,13.4311233 13.1527123,13.4311233 Z" id="Fill-3"></path>
                    </g>
                    <g id="Group-9" transform="translate(4.657534, 0.383562)">
                        <mask id="mask-2" fill="#ABAAA7">
                            <use xlink:href="#path-1"></use>
                        </mask>
                        <g id="Clip-7"></g>
                        <polygon id="Fill-6" fill="#ABAAA7" mask="url(#mask-2)" points="-190.958904 452.60274 79.2761644 452.60274 79.2761644 -28.0556164 -190.958904 -28.0556164"></polygon>
                        <path d="M-190.684932,452.328767 L79.0021918,452.328767 L79.0021918,-27.7816438 L-190.684932,-27.7816438 L-190.684932,452.328767 Z M-191.232877,452.876712 L79.550137,452.876712 L79.550137,-28.329589 L-191.232877,-28.329589 L-191.232877,452.876712 Z" id="Fill-8" fill="#FEFEFE" mask="url(#mask-2)"></path>
                    </g>
                    <g id="Group-17" transform="translate(0.000000, 5.041096)" fill="#FEFEFE">
                        <path d="M15.3207945,10.3526301 L12.375589,13.254 C12.2775068,13.3501644 12.1383288,13.4068767 11.9991507,13.4068767 C11.8602466,13.4068767 11.7210685,13.3501644 11.6227123,13.254 C11.4142192,13.0479726 11.4142192,12.7181096 11.6227123,12.5123562 L13.6596986,10.5057808 L6.43586301,10.5057808 C3.07339726,10.5057808 0.341068493,7.81372603 0.341068493,4.50112329 C0.341068493,3.07893151 0.860520548,1.70084932 1.79723288,0.61290411 C1.98134247,0.403589041 2.33312329,0.37509589 2.54983562,0.552356164 C2.77065753,0.741945205 2.79942466,1.07235616 2.61120548,1.294 C1.83394521,2.19263014 1.40463014,3.32879452 1.40463014,4.50112329 C1.40463014,7.23345205 3.66243836,9.45783562 6.43586301,9.45783562 L13.6596986,9.45783562 L11.6536712,7.48167123 C11.5180548,7.34769863 11.446,7.15427397 11.4851781,6.9679726 C11.576411,6.53372603 12.1092877,6.44742466 12.375589,6.70961644 L15.3207945,9.6109863 C15.5254521,9.81673973 15.5254521,10.1512603 15.3207945,10.3526301" id="Fill-13"></path>
                        <path d="M2.2110411,0.709287671 C2.13268493,0.709287671 2.05213699,0.738054795 2.00309589,0.793945205 C1.10857534,1.83257534 0.614876712,3.14983562 0.614876712,4.50106849 C0.614876712,7.66079452 3.22638356,10.2317534 6.4359726,10.2317534 L14.3280274,10.2317534 L11.8151507,12.7073699 C11.7669315,12.7550411 11.7403562,12.8172329 11.7403562,12.8829863 C11.7403562,12.9487397 11.7669315,13.0112055 11.8154247,13.0588767 C11.9080274,13.1498356 12.0899452,13.1503836 12.1836438,13.0583288 L15.1285753,10.1572329 C15.1743288,10.1123014 15.1998082,10.0509315 15.2003562,9.98463014 C15.2006301,9.91641096 15.1743288,9.85230137 15.1266575,9.80408219 L12.1833699,6.90463014 C12.1192603,6.84189041 12.0113151,6.81832877 11.9140548,6.84791781 C11.8537808,6.86627397 11.7770685,6.91147945 11.7532329,7.02408219 C11.7351507,7.11147945 11.7704932,7.2120274 11.8458356,7.28654795 L14.3280274,9.7320274 L6.4359726,9.7320274 C3.51049315,9.7320274 1.13049315,7.38517808 1.13049315,4.50106849 C1.13049315,3.26682192 1.58282192,2.06408219 2.40419178,1.11449315 C2.49158904,1.01147945 2.47789041,0.851753425 2.37158904,0.760520548 C2.32939726,0.726273973 2.2710411,0.709287671 2.2110411,0.709287671 M11.9992603,13.6810685 C11.7880274,13.6810685 11.5809041,13.5966849 11.4310411,13.4495616 C11.2767945,13.2972329 11.192411,13.096411 11.192411,12.8829863 C11.192411,12.6692877 11.2770685,12.4687397 11.4304932,12.3172329 L12.9910411,10.7796986 L6.4359726,10.7796986 C2.92419178,10.7796986 0.0669315068,7.96326027 0.0669315068,4.50106849 C0.0669315068,3.01887671 0.607753425,1.57421918 1.58967123,0.434219178 C1.87378082,0.110657534 2.39186301,0.068739726 2.72336986,0.340520548 C3.06282192,0.631479452 3.10391781,1.1369589 2.82008219,1.47120548 C2.08336986,2.32326027 1.67843836,3.39832877 1.67843836,4.50106849 C1.67843836,7.08326027 3.81268493,9.18408219 6.4359726,9.18408219 L12.9913151,9.18408219 L11.4614521,7.67668493 C11.2513151,7.46983562 11.1600822,7.18380822 11.2170685,6.91175342 C11.2767945,6.62709589 11.4781644,6.40709589 11.7556986,6.32326027 C12.0430959,6.23723288 12.362,6.31175342 12.5677534,6.51421918 L15.5129589,9.41586301 C15.6663836,9.57010959 15.7493973,9.77257534 15.7483014,9.98764384 C15.7469315,10.2007945 15.6636438,10.3996986 15.5129589,10.5479178 L12.5677534,13.4490137 C12.4173425,13.5966849 12.2104932,13.6810685 11.9992603,13.6810685" id="Fill-15"></path>
                    </g>
                    <g id="Group-21" transform="translate(0.273973, 5.315068)">
                        <mask id="mask-4" fill="#ABAAA7">
                            <use xlink:href="#path-3"></use>
                        </mask>
                        <g id="Clip-19"></g>
                        <polygon id="Fill-18" fill="#ABAAA7" mask="url(#mask-4)" points="-186.575342 447.671233 83.659726 447.671233 83.659726 -32.9871233 -186.575342 -32.9871233"></polygon>
                        <path d="M-186.30137,447.39726 L83.3857534,447.39726 L83.3857534,-32.7131507 L-186.30137,-32.7131507 L-186.30137,447.39726 Z M-186.849315,447.945205 L83.9336986,447.945205 L83.9336986,-33.2610959 L-186.849315,-33.2610959 L-186.849315,447.945205 Z" id="Fill-20" fill="#FEFEFE" mask="url(#mask-4)"></path>
                    </g>
                </g>
            </g>
        </g>
    </g>
</svg>
