<?xml version="1.0" encoding="utf-8"?>
<!-- Generator: Adobe Illustrator 22.0.1, SVG Export Plug-In . SVG Version: 6.00 Build 0)  -->
<svg width="30px" height="35px" version="1.1" id="Layer_1" xmlns="http://www.w3.org/2000/svg" xmlns:xlink="http://www.w3.org/1999/xlink" x="0px" y="0px"
	 viewBox="0 0 76 96.6" style="enable-background:new 0 0 76 96.6;" xml:space="preserve">
<style type="text/css">
	.st0{fill:#FFFFFF;}
	.st1{fill:none;}
	.st2{fill-rule:evenodd;clip-rule:evenodd;fill:#FFFFFF;}
</style>
<g>
	<g>
		<polygon class="st0" points="7.9,61.7 7.9,66.1 22.3,66.1 23.9,61.7 		"/>
		<path class="st0" d="M68.1,66.1v-4.5H53.3c-0.5,1.6-1.4,3.1-2.4,4.5H68.1z"/>
		<polygon class="st0" points="68.1,35.7 68.1,31.2 52.5,31.2 50.8,35.7 		"/>
		<path class="st0" d="M7.9,31.2v4.5h15.7c0.4-1.6,1-3.1,1.9-4.5H7.9z"/>
		<path class="st0" d="M26.1,46.8H7.9v4.5h24C29.7,50.1,27.6,48.7,26.1,46.8z"/>
		<path class="st0" d="M52.8,51.3h15.3v-4.5H49.7C51,48.1,52.1,49.5,52.8,51.3z"/>
	</g>
	<path class="st2" d="M40.6,22.5v6.3c3.9,0.1,6.5,1.2,8.4,2.3l-1.6,4.3c-1.4-0.8-4-2.2-8.2-2.2c-5,0-6.9,3-6.9,5.6
		c0,3.4,2.4,5.1,8,7.4c6.7,2.7,10,6.1,10,11.9c0,5.1-3.6,9.9-10.2,11v6.7h-4.1v-6.5c-3.8-0.1-7.6-1.2-9.9-2.9l1.6-4.3
		c2.3,1.6,5.7,2.8,9.3,2.8c4.6,0,7.7-2.7,7.7-6.4c0-3.6-2.5-5.8-7.3-7.7c-6.6-2.6-10.7-5.6-10.7-11.2c0-5.4,3.8-9.5,9.8-10.4v-6.5
		H40.6z"/>
</g>
</svg>
